<svg width="21" height="20" viewBox="0 0 21 20" fill="none" xmlns="http://www.w3.org/2000/svg">
<g clip-path="url(#clip0_7124_1012)">
<path d="M20.0253 9.57919C20.0253 9.16184 19.9808 8.7494 19.8902 8.34187C19.886 8.29554 19.8856 8.24886 19.8769 8.20322C19.6045 6.76618 19.0432 5.45129 18.1994 4.25784C17.7259 3.58881 17.1881 2.97665 16.5531 2.45469C16.5114 2.41468 16.4717 2.3722 16.4275 2.3357C14.6699 0.886717 12.6555 0.103608 10.3778 0.00918542C9.74137 -0.0171405 9.10639 0.0109405 8.47843 0.132391C8.42613 0.136603 8.37313 0.136603 8.32188 0.14608C6.98101 0.39916 5.72123 0.863199 4.58289 1.6249C2.14511 3.2557 0.636807 5.51236 0.141879 8.40506C-0.191583 10.3542 0.0646564 12.2451 0.890589 14.055C2.76359 18.159 7.26006 20.8681 12.1304 19.7449C16.035 18.8442 18.5472 16.3632 19.7066 12.5284C19.9966 11.5694 20.0748 10.5792 20.0253 9.57919ZM18.9748 12.3178C17.9137 15.7339 15.7153 18.0674 12.2227 18.9175C8.33065 19.8646 5.11117 18.5935 2.64635 15.4611C1.36902 13.838 0.723507 11.9629 0.761416 9.88914C0.808803 7.31095 1.81516 5.13327 3.66078 3.35153C4.91109 2.1444 6.39798 1.3497 8.10144 0.974119C8.12356 0.969205 8.14391 0.957271 8.16533 0.948495C8.17515 0.957622 8.18533 0.964642 8.19586 0.969907C8.20534 0.957973 8.21552 0.947793 8.2264 0.940071C8.64551 0.883207 9.06287 0.810196 9.48619 0.78738C11.8938 0.659612 14.0195 1.3827 15.8848 2.89977C16.4861 3.38874 17.0207 3.94755 17.47 4.57095C18.3959 5.85706 19.0309 7.27304 19.2254 8.86559C19.2956 9.43844 19.3047 10.0116 19.2879 10.5866H19.2868C19.2868 10.5866 19.2837 10.5884 19.2819 10.5898C19.2837 10.5922 19.2854 10.5947 19.2875 10.5968C19.224 11.1781 19.1489 11.7579 18.9748 12.3178Z" fill="#09090B"/>
<path d="M17.8048 9.89051C15.2526 7.3583 12.699 4.8275 10.1492 2.29284C10.051 2.19526 10.0025 2.17841 9.8937 2.28722C8.02877 4.15075 6.15893 6.00936 4.28979 7.86902C3.61479 8.54051 2.93874 9.2113 2.26304 9.88243C2.18266 9.93333 2.11667 9.98633 2.23426 10.0678C2.33781 10.1664 2.44136 10.2647 2.5449 10.3633C2.59194 10.4146 2.63687 10.4679 2.68601 10.5171C5.08062 12.899 7.47698 15.28 9.86843 17.6658C9.98637 17.7834 10.0432 17.8069 10.1756 17.6742C11.5452 16.3003 12.9243 14.9356 14.2993 13.5667C14.8662 13.0022 15.4285 12.4336 15.9929 11.8667C16.61 11.2612 17.226 10.6547 17.8452 10.0516C17.9361 9.96281 17.8473 9.93298 17.8048 9.89051ZM10.4023 16.2389V14.6264C10.4016 14.0475 10.4016 13.4684 10.4009 12.8896V12.8766C10.4006 12.5772 10.4006 12.2781 10.3999 11.979C10.3999 11.979 10.3999 11.9788 10.3999 11.9783C10.3999 11.9783 10.4002 11.9773 10.3999 11.9769C10.4002 11.9766 10.3999 11.9762 10.3999 11.9762C10.4002 11.9759 10.3999 11.9755 10.3999 11.9755C10.4002 11.9752 10.3999 11.9748 10.3999 11.9748C10.4002 11.9741 10.4002 11.9738 10.3999 11.9734C10.4002 11.9727 10.4002 11.9724 10.3999 11.972C10.4002 11.972 10.3999 11.9713 10.3999 11.9713C10.4002 11.9706 10.4002 11.9696 10.3999 11.9692C10.4002 11.9681 10.4002 11.9671 10.3999 11.9664C10.3995 11.634 10.3992 11.3016 10.3985 10.9692V10.9657C10.3985 10.8319 10.3981 10.6985 10.3978 10.5648V10.5504C10.3978 10.4623 10.4016 10.4093 10.529 10.4097C11.7762 10.4135 13.0233 10.4142 14.2701 10.4146H14.2807C14.9002 10.4146 15.5197 10.4146 16.1393 10.4149C16.161 10.4149 16.1828 10.4188 16.2439 10.424C14.3059 12.3806 12.3747 14.2999 10.4023 16.2389ZM10.4037 3.7864C10.4817 3.80991 10.5227 3.86713 10.5698 3.91311C11.209 4.53932 11.8471 5.16693 12.4859 5.79349C12.5274 5.8342 12.5723 5.87106 12.6155 5.90967C12.6362 5.93003 12.6569 5.95004 12.6776 5.97005C12.7524 6.06412 12.8362 6.14941 12.9328 6.22137C12.9444 6.25226 12.9654 6.27367 12.9967 6.28455C13.0125 6.32 13.0377 6.34563 13.0735 6.36037C13.36 6.65101 13.6436 6.94411 13.9328 7.23194C14.5573 7.85253 15.1845 8.47066 15.8104 9.0895C15.8241 9.1246 15.8483 9.14952 15.8834 9.16321C15.895 9.1962 15.9171 9.21867 15.9501 9.23025C15.9638 9.2657 15.988 9.29027 16.0234 9.30396C16.0354 9.33661 16.0575 9.35872 16.0901 9.37066C16.1287 9.41945 16.1674 9.46789 16.2053 9.51562C16.1681 9.56231 16.1238 9.5423 16.0866 9.5423C14.2561 9.54265 12.4252 9.54019 10.5947 9.54406C10.4501 9.54441 10.3974 9.52405 10.3981 9.35837C10.4009 8.43099 10.4013 7.50327 10.4006 6.57589V6.56606C10.403 6.43865 10.4058 6.31263 10.4122 6.18522C10.4178 6.06622 10.4086 5.94583 10.4002 5.82508C10.4002 5.82508 10.4002 5.82484 10.4002 5.82437C10.4002 5.82437 10.3999 5.82402 10.4002 5.82367V5.8156C10.3995 5.17149 10.3985 4.52773 10.3981 3.88363C10.3981 3.85555 10.4013 3.82711 10.4037 3.7864ZM9.56621 3.85133C9.58797 3.8917 9.5957 3.93803 9.59359 3.99349C9.59254 4.02052 9.59078 4.05703 9.59956 4.08511V4.47508C9.57323 4.51791 9.59324 4.57933 9.59324 4.62567C9.58938 6.21646 9.59008 7.80725 9.59008 9.39803C9.59008 9.42401 9.59148 9.44963 9.59464 9.4742C9.58376 9.51913 9.55217 9.54581 9.46126 9.54546C7.63178 9.53984 5.8023 9.5416 3.97247 9.5416H3.83944C5.75035 7.62261 7.63389 5.74083 9.56621 3.85133ZM9.60026 16.1126C9.60026 16.128 9.59499 16.1431 9.58692 16.1898C7.64091 14.2841 5.73561 12.3697 3.80644 10.4132H4.82298C6.36041 10.4132 7.8982 10.4139 9.43599 10.4121C9.53918 10.4121 9.60447 10.4079 9.60412 10.5522C9.5985 12.4055 9.60061 14.2589 9.60026 16.1126Z" fill="#09090B"/>
<path d="M7.2373 15.9626C6.85751 15.964 6.47736 15.9665 6.09756 15.9581C4.93992 15.9317 4.10873 15.0918 4.09433 13.9359C4.08977 13.5561 4.09293 13.1763 4.09153 12.7961C4.09153 12.7393 4.10276 12.6789 4.05432 12.6315C3.83037 12.4132 3.60748 12.1945 3.35791 11.9502C3.3888 12.6898 3.34036 13.3911 3.3874 14.0921C3.48533 15.5456 4.57873 16.6211 6.03333 16.6664C6.69323 16.6868 7.35419 16.6724 8.01479 16.6731C8.04077 16.6731 8.07412 16.6829 8.09096 16.6401C7.88106 16.4418 7.66799 16.2434 7.45879 16.0409C7.39456 15.9784 7.32365 15.9623 7.2373 15.9626Z" fill="#09090B"/>
<path d="M12.8221 4.04014C13.1906 4.03593 13.5588 4.03418 13.927 4.04155C14.9794 4.06191 15.8506 4.85098 15.965 5.89805C16.0107 6.31681 15.9735 6.73943 15.9798 7.15994C15.9805 7.21751 15.9605 7.28104 16.0001 7.33054C16.2079 7.58678 16.4501 7.80862 16.699 8.03256C16.6899 7.25998 16.7688 6.49442 16.6534 5.73518C16.467 4.50734 15.5133 3.52837 14.3395 3.37357C13.556 3.27002 12.7666 3.35813 11.98 3.32513C12.1818 3.5389 12.3735 3.73617 12.5581 3.9394C12.6325 4.02119 12.7164 4.04155 12.8221 4.04014Z" fill="#09090B"/>
<path d="M4.00033 7.39125C4.07088 7.31859 4.09299 7.23961 4.09124 7.13992C4.08527 6.80681 4.08492 6.4737 4.08738 6.14059C4.09686 4.94574 4.96842 4.0633 6.16432 4.04118C6.52656 4.03487 6.88881 4.04224 7.25106 4.04189C7.303 4.04189 7.37531 4.05452 7.40375 4.02679C7.6319 3.80039 7.85199 3.56626 8.06962 3.33881C7.38058 3.33881 6.68452 3.30932 5.99162 3.34513C4.61986 3.41638 3.53664 4.47363 3.39413 5.84118C3.31901 6.56391 3.38079 7.2891 3.39097 8.03466C3.59385 7.81984 3.79463 7.60326 4.00033 7.39125Z" fill="#09090B"/>
<path d="M16.6948 13.1394C16.7008 12.7519 16.6963 12.3644 16.6963 11.933C16.4737 12.1622 16.2645 12.3437 16.089 12.5592C15.9876 12.6203 15.9633 12.7122 15.963 12.8267C15.9623 13.3002 16.0079 13.7772 15.9437 14.2465C15.811 15.2164 15.0233 15.9156 14.0345 15.9563C13.62 15.9735 13.2044 15.9598 12.7891 15.9605C12.7259 15.9609 12.6624 15.9496 12.6094 16.0047C12.3971 16.2248 12.1819 16.4424 11.9478 16.6815C12.7417 16.6618 13.5119 16.7117 14.2809 16.6478C14.3852 16.6394 14.4894 16.6176 14.5916 16.5944C15.739 16.3329 16.6464 15.2595 16.6601 14.1493C16.6668 14.1331 16.6738 14.1177 16.6738 14.0994V14.0699C16.7212 13.7611 16.6903 13.4494 16.6948 13.1394Z" fill="#09090B"/>
</g>
<defs>
<clipPath id="clip0_7124_1012">
<rect width="20.0393" height="20" fill="white"/>
</clipPath>
</defs>
</svg>
